{"title":"Flags.of.Our.Fathers.(2006).(Dutchsubs-HC)-WaRlOrD","uid":5050532,"size":606188972,"categoryP":"video","categoryS":"movies","magnet":"?xt=urn:btih:778b2c41da216dbcc3e97aedb0ce2ea260b43e80&amp;dn=Flags.of.Our.Fathers.%282006%29.%28Dutchsubs-HC%29-WaRlOrD&amp;tr=udp%3A%2F%2Ftracker.openbittorrent.com%3A80&amp;tr=udp%3A%2F%2Fopen.demonii.com%3A1337&amp;tr=udp%3A%2F%2Ftracker.coppersurfer.tk%3A6969&amp;tr=udp%3A%2F%2Fexodus.desync.com%3A6969","seeders":0,"leechers":1,"uploader":"bitpirate","files":2,"time":1250169096,"description":"((((((hardcoded Dutch subs))))))))\n\nVerenigde Staten\nDrama / Oorlog\n132 minuten\n\ngeregisseerd door Clint Eastwood\nmet Ryan Phillippe, Jesse Bradford en Adam Beach\n\nHet is februari 1945. Terwijl de overwinning in Europa eindelijk in zicht komt, woedt de oorlog in de Stille Oceaan in alle hevigheid voort. EÃƒÂ©n van de belangrijkste en bloedigste veldslagen speelde zich af op het eiland Iwo Jima. Vijf mariniers en een veldarts van de marine planten de Amerikaanse vlag op de Suribachiberg. De foto die daarvan wordt gemaakt, wordt een symbool van de overwinning. De Amerikaanse soldaten worden op slag beroemd en worden ingezet om geld bij het volk op te halen om de verdere oorlog te kunnen betalen.\n &lt;a href=&quot;\nhttp://www.moviemeter.nl/film/31631&quot; rel=&quot;nofollow&quot; target=&quot;_NEW&quot;&gt;\nhttp://www.moviemeter.nl/film/31631&lt;/a&gt;\n\nFormat : AVI\nFormat/Info : Audio Video Interleave\nFile size : 578 MiB\nDuration : 2h 11mn\nOverall bit rate : 613 Kbps\nWriting application : VirtualDubMod 1.5.4.1 (build 2178/release)\nWriting library : VirtualDub build 25854/release\n\nVideo\nID : 0\nFormat : MPEG-4 Visual\nFormat profile : Advanced Simple@L5\nFormat settings, BVOP : Yes\nFormat settings, QPel : No\nFormat settings, GMC : No warppoints\nFormat settings, Matrix : Default (H.263)\nMuxing mode : Packed bitstream\nCodec ID : XVID\nCodec ID/Hint : XviD\nDuration : 2h 11mn\nBit rate : 492 Kbps\nWidth : 608 pixels\nHeight : 256 pixels\nDisplay aspect ratio : 2.35\nFrame rate : 23.976 fps\nResolution : 24 bits\nColorimetry : 4:2:0\nScan type : Progressive\nBits/(Pixel*Frame) : 0.132\nStream size : 464 MiB (80%)\nWriting library : XviD 1.1.2 (UTC 2006-11-01)\n\nAudio\nID : 1\nFormat : MPEG Audio\nFormat version : Version 1\nFormat profile : Layer 3\nCodec ID : 55\nCodec ID/Hint : MP3\nDuration : 2h 11mn\nBit rate mode : Constant\nBit rate : 112 Kbps\nChannel(s) : 2 channels\nSampling rate : 48.0 KHz\nResolution : 16 bits\nStream size : 106 MiB (18%)\nAlignment : Split accross interleaves\nInterleave, duration : 42 ms (1.00 video frame)\nInterleave, preload duration : 500 ms\n","torrent":{"xt":"urn:btih:778b2c41da216dbcc3e97aedb0ce2ea260b43e80","amp;dn":"Flags.of.Our.Fathers.%282006%29.%28Dutchsubs-HC%29-WaRlOrD","amp;tr":["udp%3A%2F%2Ftracker.openbittorrent.com%3A80","udp%3A%2F%2Fopen.demonii.com%3A1337","udp%3A%2F%2Ftracker.coppersurfer.tk%3A6969","udp%3A%2F%2Fexodus.desync.com%3A6969"],"infoHash":"778b2c41da216dbcc3e97aedb0ce2ea260b43e80","infoHashBuffer":{"type":"Buffer","data":[119,139,44,65,218,33,109,188,195,233,122,237,176,206,46,162,96,180,62,128]},"announce":[],"urlList":[]}}